<svg width="23" height="25" viewBox="0 0 23 25" fill="none" xmlns="http://www.w3.org/2000/svg">
<path d="M16.0538 6.64507C15.6632 7.03559 15.6632 7.66876 16.0538 8.05928C16.4443 8.44981 17.0775 8.44981 17.468 8.05928L16.0538 6.64507ZM18.3028 3.30594C17.9122 2.91541 17.2791 2.91541 16.8885 3.30594C16.498 3.69646 16.498 4.32963 16.8885 4.72015L18.3028 3.30594ZM19.3929 7.2245C19.7834 7.61502 20.4166 7.61502 20.8071 7.2245C21.1976 6.83397 21.1976 6.20081 20.8071 5.81028L19.3929 7.2245ZM11.5 10.3409C11.5 9.78863 11.0523 9.34091 10.5 9.34091C9.94772 9.34091 9.5 9.78863 9.5 10.3409H11.5ZM9.5 13.7175C9.5 14.2698 9.94772 14.7175 10.5 14.7175C11.0523 14.7175 11.5 14.2698 11.5 13.7175H9.5ZM8 1.5C7.44772 1.5 7 1.94772 7 2.5C7 3.05228 7.44772 3.5 8 3.5V1.5ZM13 3.5C13.5523 3.5 14 3.05228 14 2.5C14 1.94772 13.5523 1.5 13 1.5V3.5ZM17.468 8.05928L19.5549 5.97232L18.1407 4.55811L16.0538 6.64507L17.468 8.05928ZM16.8885 4.72015L18.1407 5.97232L19.5549 4.55811L18.3028 3.30594L16.8885 4.72015ZM18.1407 5.97232L19.3929 7.2245L20.8071 5.81028L19.5549 4.55811L18.1407 5.97232ZM9.5 10.3409V13.7175H11.5V10.3409H9.5ZM8 3.5H13V1.5H8V3.5ZM18 13.9286C18 18.1181 14.6343 21.5 10.5 21.5V23.5C15.7546 23.5 20 19.2068 20 13.9286H18ZM10.5 21.5C6.36574 21.5 3 18.1181 3 13.9286H1C1 19.2068 5.24542 23.5 10.5 23.5V21.5ZM3 13.9286C3 9.73908 6.36574 6.35714 10.5 6.35714V4.35714C5.24542 4.35714 1 8.65032 1 13.9286H3ZM10.5 6.35714C14.6343 6.35714 18 9.73908 18 13.9286H20C20 8.65032 15.7546 4.35714 10.5 4.35714V6.35714Z" fill="black"/>
</svg>
