<svg width="36" height="36" viewBox="0 0 36 36" fill="none" xmlns="http://www.w3.org/2000/svg">
<path d="M18.002 35.0308C27.9442 35.0308 36.0039 27.1889 36.0039 17.5154C36.0039 7.84192 27.9442 0 18.002 0C8.05975 0 0 7.84192 0 17.5154C0 27.1889 8.05975 35.0308 18.002 35.0308Z" fill="#D9D9D9"/>
<mask id="mask0_4421_15589" style="mask-type:alpha" maskUnits="userSpaceOnUse" x="5" y="7" width="26" height="29">
<path d="M5 31.1056C5 25.7484 9.27143 21.4055 18 21.4055C26.7286 21.4055 31 25.7484 31 31.1056C31 31.2928 30.9714 31.4723 30.9189 31.6383C30.5758 32.7242 29.1172 32.797 28.0167 33.0896L17.0714 36.0001L8.23421 33.244C6.96903 32.8495 5.20649 32.6736 5.01819 31.3618C5.00623 31.2785 5 31.1929 5 31.1056Z" fill="white"/>
<ellipse cx="18" cy="13.6215" rx="6" ry="5.83784" fill="white"/>
</mask>
<g mask="url(#mask0_4421_15589)">
<path d="M18.0059 35.0294C27.9481 35.0294 36.0078 27.1874 36.0078 17.5139C36.0078 7.84045 27.9481 -0.00146484 18.0059 -0.00146484C8.06366 -0.00146484 0.00390625 7.84045 0.00390625 17.5139C0.00390625 27.1874 8.06366 35.0294 18.0059 35.0294Z" fill="white"/>
</g>
</svg>
