<svg width="28" height="28" viewBox="0 0 28 28" fill="none" xmlns="http://www.w3.org/2000/svg">
<g filter="url(#filter0_d_2687_14002)">
<circle cx="14" cy="14" r="10" fill="white" fill-opacity="0.5" shape-rendering="crispEdges"/>
</g>
<path fill-rule="evenodd" clip-rule="evenodd" d="M9.29289 9.29289C9.68342 8.90237 10.3166 8.90237 10.7071 9.29289L14 12.5858L17.2929 9.29289C17.6834 8.90237 18.3166 8.90237 18.7071 9.2929C19.0976 9.68342 19.0976 10.3166 18.7071 10.7071L15.4142 14L18.7071 17.2929C19.0976 17.6834 19.0976 18.3166 18.7071 18.7071C18.3166 19.0976 17.6834 19.0976 17.2929 18.7071L14 15.4142L10.7071 18.7071C10.3166 19.0976 9.68342 19.0976 9.29289 18.7071C8.90237 18.3166 8.90237 17.6834 9.29289 17.2929L12.5858 14L9.29289 10.7071C8.90237 10.3166 8.90237 9.68342 9.29289 9.29289Z" fill="black"/>
<defs>
<filter id="filter0_d_2687_14002" x="0" y="0" width="28" height="28" filterUnits="userSpaceOnUse" color-interpolation-filters="sRGB">
<feFlood flood-opacity="0" result="BackgroundImageFix"/>
<feColorMatrix in="SourceAlpha" type="matrix" values="0 0 0 0 0 0 0 0 0 0 0 0 0 0 0 0 0 0 127 0" result="hardAlpha"/>
<feOffset/>
<feGaussianBlur stdDeviation="2"/>
<feComposite in2="hardAlpha" operator="out"/>
<feColorMatrix type="matrix" values="0 0 0 0 0 0 0 0 0 0 0 0 0 0 0 0 0 0 0.1 0"/>
<feBlend mode="normal" in2="BackgroundImageFix" result="effect1_dropShadow_2687_14002"/>
<feBlend mode="normal" in="SourceGraphic" in2="effect1_dropShadow_2687_14002" result="shape"/>
</filter>
</defs>
</svg>
