<svg width="20" height="20" viewBox="0 0 20 20" fill="none" xmlns="http://www.w3.org/2000/svg">
<path d="M6.14949 8.49164L4.28828 10.3529C3.59317 11.048 3.19343 11.9938 3.20074 12.9878C3.20804 13.9818 3.59903 14.9334 4.32713 15.639C5.0327 16.3671 5.98447 16.7581 6.97832 16.7654C7.99484 16.7728 8.91826 16.3956 9.61341 15.7005L11.4746 13.8393M13.852 11.5074L15.7132 9.64619C16.4083 8.95108 16.808 8.00528 16.8007 7.01127C16.7934 6.01726 16.4024 5.06568 15.6743 4.36007C14.9689 3.65467 14.0173 3.26366 13.0233 3.25636C12.0293 3.24905 11.0834 3.62609 10.3882 4.32123L8.527 6.18244M7.17832 12.7722L12.762 7.18852" stroke="#8E8E8E" stroke-width="1.5" stroke-linecap="round" stroke-linejoin="round"/>
</svg>
