<svg width="20" height="21" viewBox="0 0 20 21" fill="none" xmlns="http://www.w3.org/2000/svg">
<path d="M10 20C15.5228 20 20 15.5228 20 10C20 4.47715 15.5228 0 10 0C4.47715 0 0 4.47715 0 10C0 15.5228 4.47715 20 10 20Z" fill="#D9D9D9"/>
<mask id="mask0_4124_45858" style="mask-type:alpha" maskUnits="userSpaceOnUse" x="2" y="5" width="16" height="16">
<path d="M2.5 18.4868C2.5 15.7362 4.94666 13.5063 9.94637 13.5063C14.9461 13.5063 17.3927 15.7362 17.3927 18.4868V18.4868C17.3927 19.2966 16.2356 19.374 15.4479 19.5618L9.41448 20.9999L4.43303 19.6073C3.65415 19.3896 2.5 19.2956 2.5 18.4868V18.4868Z" fill="white"/>
<ellipse cx="10.25" cy="8.90091" rx="3.25" ry="3.11246" fill="white"/>
</mask>
<g mask="url(#mask0_4124_45858)">
<path d="M10 19.9999C15.5228 19.9999 20 15.5227 20 9.99988C20 4.47703 15.5228 -0.00012207 10 -0.00012207C4.47715 -0.00012207 0 4.47703 0 9.99988C0 15.5227 4.47715 19.9999 10 19.9999Z" fill="white"/>
</g>
</svg>
