<svg width="17" height="17" viewBox="0 0 17 17" fill="none" xmlns="http://www.w3.org/2000/svg">
<path fill-rule="evenodd" clip-rule="evenodd" d="M8.80104 1.33301C7.10737 1.33301 5.73437 2.706 5.73437 4.39967C5.73437 6.09335 7.10737 7.46634 8.80104 7.46634C10.4947 7.46634 11.8677 6.09335 11.8677 4.39967C11.8677 2.706 10.4947 1.33301 8.80104 1.33301ZM8.80104 8.85047C6.55461 8.85047 4.79493 9.38325 3.58091 10.3253C2.35212 11.2788 1.73438 12.6142 1.73438 14.0746C1.73438 14.7754 2.26068 15.4663 3.05359 15.4663H14.5485C15.3414 15.4663 15.8677 14.7754 15.8677 14.0746C15.8677 12.6142 15.25 11.2788 14.0212 10.3253C12.8071 9.38325 11.0475 8.85047 8.80104 8.85047Z" fill="#BDBDBD"/>
</svg>
