<svg width="16" height="16" viewBox="0 0 16 16" fill="none" xmlns="http://www.w3.org/2000/svg">
<path d="M10.6852 13.7129L10.6854 11.5704C10.6855 10.3869 9.72612 9.4275 8.54266 9.4275H3.74451C2.56122 9.4275 1.60194 10.3867 1.6018 11.57L1.60156 13.7129M14.4014 13.713L14.4016 11.5705C14.4017 10.3871 13.4423 9.42762 12.2589 9.42762M10.2725 2.70609C10.7987 3.09652 11.1397 3.72242 11.1397 4.42798C11.1397 5.13353 10.7987 5.75943 10.2725 6.14986M8.33076 4.42786C8.33076 5.61124 7.37144 6.57056 6.18806 6.57056C5.00467 6.57056 4.04535 5.61124 4.04535 4.42786C4.04535 3.24448 5.00467 2.28516 6.18806 2.28516C7.37144 2.28516 8.33076 3.24448 8.33076 4.42786Z" stroke="#9747FF" stroke-width="1.5" stroke-linecap="round" stroke-linejoin="round"/>
</svg>
