<svg width="24" height="24" viewBox="0 0 24 24" fill="none" xmlns="http://www.w3.org/2000/svg">
<path d="M2.07031 4.55112C2.07031 3.17993 3.18188 2.06836 4.55307 2.06836H19.4496C20.8208 2.06836 21.9324 3.17993 21.9324 4.55112V19.4477C21.9324 20.8189 20.8208 21.9304 19.4496 21.9304H4.55307C3.18188 21.9304 2.07031 20.8189 2.07031 19.4477V4.55112Z" fill="#9747FF" stroke="#9747FF" stroke-width="1.5" stroke-linecap="round" stroke-linejoin="round"/>
<path d="M9.94155 16.344H11.9229M11.9229 16.344H13.9959M11.9229 16.344V7.6543M11.9229 7.6543H8.691C8.3482 7.6543 8.07031 7.93219 8.07031 8.27499V9.18777M11.9229 7.6543H14.8979C15.2407 7.6543 15.5186 7.93219 15.5186 8.27499V9.44334" stroke="white" stroke-width="1.5" stroke-linecap="round" stroke-linejoin="round"/>
</svg>
